<svg width="720" height="336" xmlns="http://www.w3.org/2000/svg" xmlns:xlink="http://www.w3.org/1999/xlink" xml:space="preserve" overflow="hidden"><defs><clipPath id="clip0"><rect x="0" y="0" width="720" height="336"/></clipPath><clipPath id="clip1"><rect x="0" y="0" width="720" height="336"/></clipPath><clipPath id="clip2"><rect x="0" y="0" width="720" height="335"/></clipPath></defs><g clip-path="url(#clip0)"><g clip-path="url(#clip1)"><g clip-path="url(#clip2)"><path d="M15.6177 83.9452 734.813 83.9452 734.813 418.555 15.6177 418.555Z" fill="#FFFFFF" fill-rule="nonzero" fill-opacity="1" transform="matrix(1.00112 0 0 1 -15.6352 -83.5548)"/><path d="M165.157 105.083C165.157 100.956 168.503 97.6107 172.63 97.6107L719.532 97.6107C723.659 97.6107 727.005 100.956 727.005 105.083L727.005 406.787C727.005 410.914 723.659 414.26 719.532 414.26L172.63 414.26C168.503 414.26 165.157 410.914 165.157 406.787Z" fill="#F2F2F2" fill-rule="evenodd" fill-opacity="1" transform="matrix(1.00112 0 0 1 -15.6352 -83.5548)"/><text fill="#000000" fill-opacity="1" font-family="Calibri,Calibri_MSFontService,sans-serif" font-style="normal" font-variant="normal" font-weight="400" font-stretch="normal" font-size="56" text-anchor="start" direction="ltr" writing-mode="lr-tb" unicode-bidi="normal" text-decoration="none" transform="matrix(0.390879 0 0 0.390443 411.397 36)">PLM</text><path d="M254.374 134.508 370.726 134.508 370.726 200.102 254.374 200.102Z" stroke="#205259" stroke-width="1.95221" stroke-linecap="butt" stroke-linejoin="miter" stroke-miterlimit="8" stroke-opacity="1" fill="#D7EEF1" fill-rule="nonzero" fill-opacity="1" transform="matrix(1.00112 0 0 1 -15.6352 -83.5548)"/><text fill="#0E2633" fill-opacity="1" font-family="Calibri,Calibri_MSFontService,sans-serif" font-style="normal" font-variant="normal" font-weight="400" font-stretch="normal" font-size="48" text-anchor="start" direction="ltr" writing-mode="lr-tb" unicode-bidi="normal" text-decoration="none" transform="matrix(0.390879 0 0 0.390443 260.641 78)">o</text><text fill="#0E2633" fill-opacity="1" font-family="Calibri,Calibri_MSFontService,sans-serif" font-style="normal" font-variant="normal" font-weight="400" font-stretch="normal" font-size="48" text-anchor="start" direction="ltr" writing-mode="lr-tb" unicode-bidi="normal" text-decoration="none" transform="matrix(0.390879 0 0 0.390443 270.51 78)">slc_plm</text><text fill="#0E2633" fill-opacity="1" font-family="Calibri,Calibri_MSFontService,sans-serif" font-style="normal" font-variant="normal" font-weight="400" font-stretch="normal" font-size="48" text-anchor="start" direction="ltr" writing-mode="lr-tb" unicode-bidi="normal" text-decoration="none" transform="matrix(0.390879 0 0 0.390443 328.556 78)">:</text><text fill="#0E2633" fill-opacity="1" font-family="Calibri,Calibri_MSFontService,sans-serif" font-style="normal" font-variant="normal" font-weight="700" font-stretch="normal" font-size="48" text-anchor="start" direction="ltr" writing-mode="lr-tb" unicode-bidi="normal" text-decoration="none" transform="matrix(0.390879 0 0 0.390443 281.053 101)">Part</text><path d="M254.374 303.569 372.678 303.569 372.678 373.459 254.374 373.459Z" stroke="#205259" stroke-width="1.95221" stroke-linecap="butt" stroke-linejoin="miter" stroke-miterlimit="8" stroke-opacity="1" fill="#D7EEF1" fill-rule="nonzero" fill-opacity="1" transform="matrix(1.00112 0 0 1 -15.6352 -83.5548)"/><text fill="#0E2633" fill-opacity="1" font-family="Calibri,Calibri_MSFontService,sans-serif" font-style="normal" font-variant="normal" font-weight="400" font-stretch="normal" font-size="48" text-anchor="start" direction="ltr" writing-mode="lr-tb" unicode-bidi="normal" text-decoration="none" transform="matrix(0.390879 0 0 0.390443 261.702 249)">oslc_plm</text><text fill="#0E2633" fill-opacity="1" font-family="Calibri,Calibri_MSFontService,sans-serif" font-style="normal" font-variant="normal" font-weight="400" font-stretch="normal" font-size="48" text-anchor="start" direction="ltr" writing-mode="lr-tb" unicode-bidi="normal" text-decoration="none" transform="matrix(0.390879 0 0 0.390443 329.618 249)">:</text><text fill="#0E2633" fill-opacity="1" font-family="Calibri,Calibri_MSFontService,sans-serif" font-style="normal" font-variant="normal" font-weight="700" font-stretch="normal" font-size="48" text-anchor="start" direction="ltr" writing-mode="lr-tb" unicode-bidi="normal" text-decoration="none" transform="matrix(0.390879 0 0 0.390443 258.517 272)">PartUsage</text><path d="M524.17 154.42 638.179 154.42 638.179 210.644 524.17 210.644Z" stroke="#205259" stroke-width="1.95221" stroke-linecap="butt" stroke-linejoin="miter" stroke-miterlimit="8" stroke-opacity="1" fill="#D7EEF1" fill-rule="nonzero" fill-opacity="1" transform="matrix(1.00112 0 0 1 -15.6352 -83.5548)"/><text fill="#0E2633" fill-opacity="1" font-family="Calibri,Calibri_MSFontService,sans-serif" font-style="normal" font-variant="normal" font-weight="400" font-stretch="normal" font-size="40" text-anchor="start" direction="ltr" writing-mode="lr-tb" unicode-bidi="normal" text-decoration="none" transform="matrix(0.390879 0 0 0.390443 535.399 95)">oslc_plm</text><text fill="#0E2633" fill-opacity="1" font-family="Calibri,Calibri_MSFontService,sans-serif" font-style="normal" font-variant="normal" font-weight="400" font-stretch="normal" font-size="40" text-anchor="start" direction="ltr" writing-mode="lr-tb" unicode-bidi="normal" text-decoration="none" transform="matrix(0.390879 0 0 0.390443 592.175 95)">:</text><text fill="#0E2633" fill-opacity="1" font-family="Calibri,Calibri_MSFontService,sans-serif" font-style="normal" font-variant="normal" font-weight="700" font-stretch="normal" font-size="40" text-anchor="start" direction="ltr" writing-mode="lr-tb" unicode-bidi="normal" text-decoration="none" transform="matrix(0.390879 0 0 0.390443 521.91 114)">LogicalDesign</text><path d="M524.17 248.907 638.179 248.907 638.179 305.522 524.17 305.522Z" stroke="#205259" stroke-width="1.95221" stroke-linecap="butt" stroke-linejoin="miter" stroke-miterlimit="8" stroke-opacity="1" fill="#D7EEF1" fill-rule="nonzero" fill-opacity="1" transform="matrix(1.00112 0 0 1 -15.6352 -83.5548)"/><text fill="#0E2633" fill-opacity="1" font-family="Calibri,Calibri_MSFontService,sans-serif" font-style="normal" font-variant="normal" font-weight="400" font-stretch="normal" font-size="40" text-anchor="start" direction="ltr" writing-mode="lr-tb" unicode-bidi="normal" text-decoration="none" transform="matrix(0.390879 0 0 0.390443 537.733 190)">o</text><text fill="#0E2633" fill-opacity="1" font-family="Calibri,Calibri_MSFontService,sans-serif" font-style="normal" font-variant="normal" font-weight="400" font-stretch="normal" font-size="40" text-anchor="start" direction="ltr" writing-mode="lr-tb" unicode-bidi="normal" text-decoration="none" transform="matrix(0.390879 0 0 0.390443 545.941 190)">slc_plm</text><text fill="#0E2633" fill-opacity="1" font-family="Calibri,Calibri_MSFontService,sans-serif" font-style="normal" font-variant="normal" font-weight="700" font-stretch="normal" font-size="40" text-anchor="start" direction="ltr" writing-mode="lr-tb" unicode-bidi="normal" text-decoration="none" transform="matrix(0.390879 0 0 0.390443 518.377 208)">PhysicalDesign</text><path d="M22.6457 181.551C22.6457 179.397 24.3914 177.652 26.5448 177.652L138.222 177.652C140.376 177.652 142.121 179.397 142.121 181.551L142.121 247.155C142.121 249.309 140.376 251.055 138.222 251.055L26.5448 251.055C24.3914 251.055 22.6457 249.309 22.6457 247.155Z" fill="#F2F2F2" fill-rule="evenodd" fill-opacity="1" transform="matrix(1.00112 0 0 1 -15.6352 -83.5548)"/><text fill="#000000" fill-opacity="1" font-family="Calibri,Calibri_MSFontService,sans-serif" font-style="normal" font-variant="normal" font-weight="400" font-stretch="normal" font-size="28" text-anchor="start" direction="ltr" writing-mode="lr-tb" unicode-bidi="normal" text-decoration="none" transform="matrix(0.390879 0 0 0.390443 58.3309 105)">QM</text><path d="M22.6457 261.612C22.6457 259.447 24.4007 257.692 26.5656 257.692L138.201 257.692C140.366 257.692 142.121 259.447 142.121 261.612L142.121 327.566C142.121 329.731 140.366 331.486 138.201 331.486L26.5656 331.486C24.4007 331.486 22.6457 329.731 22.6457 327.566Z" fill="#F2F2F2" fill-rule="evenodd" fill-opacity="1" transform="matrix(1.00112 0 0 1 -15.6352 -83.5548)"/><text fill="#000000" fill-opacity="1" font-family="Calibri,Calibri_MSFontService,sans-serif" font-style="normal" font-variant="normal" font-weight="400" font-stretch="normal" font-size="28" text-anchor="start" direction="ltr" writing-mode="lr-tb" unicode-bidi="normal" text-decoration="none" transform="matrix(0.390879 0 0 0.390443 59.015 185)">RM</text><path d="M22.6457 342.023C22.6457 339.869 24.3914 338.124 26.5448 338.124L138.222 338.124C140.376 338.124 142.121 339.869 142.121 342.023L142.121 407.626C142.121 409.782 140.376 411.527 138.222 411.527L26.5448 411.527C24.3914 411.527 22.6457 409.782 22.6457 407.626Z" fill="#F2F2F2" fill-rule="evenodd" fill-opacity="1" transform="matrix(1.00112 0 0 1 -15.6352 -83.5548)"/><text fill="#000000" fill-opacity="1" font-family="Calibri,Calibri_MSFontService,sans-serif" font-style="normal" font-variant="normal" font-weight="400" font-stretch="normal" font-size="28" text-anchor="start" direction="ltr" writing-mode="lr-tb" unicode-bidi="normal" text-decoration="none" transform="matrix(0.390879 0 0 0.390443 58.8195 266)">AM</text><path d="M37.2873 195.807 127.48 195.807 127.48 240.318 37.2873 240.318Z" stroke="#205259" stroke-width="1.95221" stroke-linecap="butt" stroke-linejoin="miter" stroke-miterlimit="8" stroke-opacity="1" fill="#D9D9D9" fill-rule="nonzero" fill-opacity="1" transform="matrix(1.00112 0 0 1 -15.6352 -83.5548)"/><text fill="#0E2633" fill-opacity="1" font-family="Calibri,Calibri_MSFontService,sans-serif" font-style="normal" font-variant="normal" font-weight="400" font-stretch="normal" font-size="28" text-anchor="start" direction="ltr" writing-mode="lr-tb" unicode-bidi="normal" text-decoration="none" transform="matrix(0.390879 0 0 0.390443 46.6534 131)">oslc_qm</text><text fill="#0E2633" fill-opacity="1" font-family="Calibri,Calibri_MSFontService,sans-serif" font-style="normal" font-variant="normal" font-weight="400" font-stretch="normal" font-size="28" text-anchor="start" direction="ltr" writing-mode="lr-tb" unicode-bidi="normal" text-decoration="none" transform="matrix(0.390879 0 0 0.390443 83.787 131)">:</text><text fill="#0E2633" fill-opacity="1" font-family="Calibri,Calibri_MSFontService,sans-serif" font-style="normal" font-variant="normal" font-weight="700" font-stretch="normal" font-size="28" text-anchor="start" direction="ltr" writing-mode="lr-tb" unicode-bidi="normal" text-decoration="none" transform="matrix(0.390879 0 0 0.390443 47.1889 144)">TestCase</text><path d="M37.2873 275.848 127.48 275.848 127.48 320.749 37.2873 320.749Z" stroke="#205259" stroke-width="1.95221" stroke-linecap="butt" stroke-linejoin="miter" stroke-miterlimit="8" stroke-opacity="1" fill="#D9D9D9" fill-rule="nonzero" fill-opacity="1" transform="matrix(1.00112 0 0 1 -15.6352 -83.5548)"/><text fill="#0E2633" fill-opacity="1" font-family="Calibri,Calibri_MSFontService,sans-serif" font-style="normal" font-variant="normal" font-weight="400" font-stretch="normal" font-size="28" text-anchor="start" direction="ltr" writing-mode="lr-tb" unicode-bidi="normal" text-decoration="none" transform="matrix(0.390879 0 0 0.390443 47.6287 212)">o</text><text fill="#0E2633" fill-opacity="1" font-family="Calibri,Calibri_MSFontService,sans-serif" font-style="normal" font-variant="normal" font-weight="400" font-stretch="normal" font-size="28" text-anchor="start" direction="ltr" writing-mode="lr-tb" unicode-bidi="normal" text-decoration="none" transform="matrix(0.390879 0 0 0.390443 53.3941 212)">slc_rm</text><text fill="#0E2633" fill-opacity="1" font-family="Calibri,Calibri_MSFontService,sans-serif" font-style="normal" font-variant="normal" font-weight="400" font-stretch="normal" font-size="28" text-anchor="start" direction="ltr" writing-mode="lr-tb" unicode-bidi="normal" text-decoration="none" transform="matrix(0.390879 0 0 0.390443 82.8078 212)">:</text><text fill="#0E2633" fill-opacity="1" font-family="Calibri,Calibri_MSFontService,sans-serif" font-style="normal" font-variant="normal" font-weight="700" font-stretch="normal" font-size="28" text-anchor="start" direction="ltr" writing-mode="lr-tb" unicode-bidi="normal" text-decoration="none" transform="matrix(0.390879 0 0 0.390443 37.1218 225)">Requirement</text><path d="M37.2873 355.889 127.48 355.889 127.48 400.79 37.2873 400.79Z" stroke="#205259" stroke-width="1.95221" stroke-linecap="butt" stroke-linejoin="miter" stroke-miterlimit="8" stroke-opacity="1" fill="#D9D9D9" fill-rule="nonzero" fill-opacity="1" transform="matrix(1.00112 0 0 1 -15.6352 -83.5548)"/><text fill="#0E2633" fill-opacity="1" font-family="Calibri,Calibri_MSFontService,sans-serif" font-style="normal" font-variant="normal" font-weight="400" font-stretch="normal" font-size="28" text-anchor="start" direction="ltr" writing-mode="lr-tb" unicode-bidi="normal" text-decoration="none" transform="matrix(0.390879 0 0 0.390443 46.8997 292)">o</text><text fill="#0E2633" fill-opacity="1" font-family="Calibri,Calibri_MSFontService,sans-serif" font-style="normal" font-variant="normal" font-weight="400" font-stretch="normal" font-size="28" text-anchor="start" direction="ltr" writing-mode="lr-tb" unicode-bidi="normal" text-decoration="none" transform="matrix(0.390879 0 0 0.390443 52.6651 292)">slc_am</text><text fill="#0E2633" fill-opacity="1" font-family="Calibri,Calibri_MSFontService,sans-serif" font-style="normal" font-variant="normal" font-weight="400" font-stretch="normal" font-size="28" text-anchor="start" direction="ltr" writing-mode="lr-tb" unicode-bidi="normal" text-decoration="none" transform="matrix(0.390879 0 0 0.390443 83.5446 292)">:</text><text fill="#0E2633" fill-opacity="1" font-family="Calibri,Calibri_MSFontService,sans-serif" font-style="normal" font-variant="normal" font-weight="700" font-stretch="normal" font-size="28" text-anchor="start" direction="ltr" writing-mode="lr-tb" unicode-bidi="normal" text-decoration="none" transform="matrix(0.390879 0 0 0.390443 45.9811 305)">Resource</text><text fill="#000000" fill-opacity="1" font-family="Calibri,Calibri_MSFontService,sans-serif" font-style="normal" font-variant="normal" font-weight="400" font-stretch="normal" font-size="36" text-anchor="start" direction="ltr" writing-mode="lr-tb" unicode-bidi="normal" text-decoration="none" transform="matrix(0.390879 0 0 0.390443 317.921 30)">aligns</text><path d="M0-0.780886 52.5353-0.780886 52.5353 0.218279 51.7544-0.562605 101.9-0.562605 101.9 0.999167 50.9735 0.999167 50.9735 0 51.7544 0.780886 0 0.780886ZM0 3.90443C-2.15636 3.90443-3.90443 2.15636-3.90443 0-3.90443-2.15636-2.15636-3.90443 0-3.90443 2.15636-3.90443 3.90443-2.15636 3.90443 0 3.90443 2.15636 2.15636 3.90443 0 3.90443ZM95.2509-4.36878 103.508 0.218279 95.2509 4.80534C94.8741 5.01477 94.3985 4.87894 94.1893 4.50192 93.9796 4.12495 94.1155 3.64954 94.4926 3.44009L101.521-0.464338 101.521 0.900896 94.4926-3.00353C94.1155-3.21298 93.9796-3.68838 94.1893-4.06537 94.3985-4.44238 94.8741-4.57822 95.2509-4.36878Z" fill="#DB7F05" fill-rule="nonzero" fill-opacity="1" transform="matrix(1.83902e-16 1 1.00112 -1.83697e-16 340.456 116.352)"/><path d="M0-0.780886 50.7615-0.780886 50.7615 0.000122974 49.9806-0.780765 98.3526-0.780765 98.3526 0.781007 49.1997 0.781007 49.1997 0 49.9806 0.780886 0 0.780886ZM0 3.90443C-2.15636 3.90443-3.90443 2.15636-3.90443 0-3.90443-2.15636-2.15636-3.90443 0-3.90443 2.15636-3.90443 3.90443-2.15636 3.90443 0 3.90443 2.15636 2.15636 3.90443 0 3.90443ZM91.7037-4.58692 99.9604 0.000122974 91.7037 4.58716C91.3265 4.79663 90.8514 4.66079 90.6417 4.28378 90.4324 3.90677 90.5683 3.43138 90.9451 3.22193L97.973-0.682494 97.973 0.68274 90.9451-3.22169C90.5683-3.43113 90.4324-3.90654 90.6417-4.28355 90.8514-4.66052 91.3265-4.79636 91.7037-4.58692Z" fill="#DB7F05" fill-rule="nonzero" fill-opacity="1" transform="matrix(-1.83902e-16 -1 -1.00112 1.83697e-16 317.003 216.313)"/><path d="M23.4266 101.51C23.4266 99.3564 25.1723 97.6107 27.3257 97.6107L139.003 97.6107C141.156 97.6107 142.902 99.3564 142.902 101.51L142.902 167.115C142.902 169.268 141.156 171.014 139.003 171.014L27.3257 171.014C25.1723 171.014 23.4266 169.268 23.4266 167.115Z" fill="#F2F2F2" fill-rule="evenodd" fill-opacity="1" transform="matrix(1.00112 0 0 1 -15.6352 -83.5548)"/><text fill="#000000" fill-opacity="1" font-family="Calibri,Calibri_MSFontService,sans-serif" font-style="normal" font-variant="normal" font-weight="400" font-stretch="normal" font-size="28" text-anchor="start" direction="ltr" writing-mode="lr-tb" unicode-bidi="normal" text-decoration="none" transform="matrix(0.390879 0 0 0.390443 56.9124 25)">CCM</text><path d="M38.0682 115.376 128.26 115.376 128.26 160.277 38.0682 160.277Z" stroke="#205259" stroke-width="1.95221" stroke-linecap="butt" stroke-linejoin="miter" stroke-miterlimit="8" stroke-opacity="1" fill="#D9D9D9" fill-rule="nonzero" fill-opacity="1" transform="matrix(1.00112 0 0 1 -15.6352 -83.5548)"/><text fill="#0E2633" fill-opacity="1" font-family="Calibri,Calibri_MSFontService,sans-serif" font-style="normal" font-variant="normal" font-weight="400" font-stretch="normal" font-size="28" text-anchor="start" direction="ltr" writing-mode="lr-tb" unicode-bidi="normal" text-decoration="none" transform="matrix(0.390879 0 0 0.390443 45.7255 51)">oslc_ccm</text><text fill="#0E2633" fill-opacity="1" font-family="Calibri,Calibri_MSFontService,sans-serif" font-style="normal" font-variant="normal" font-weight="400" font-stretch="normal" font-size="28" text-anchor="start" direction="ltr" writing-mode="lr-tb" unicode-bidi="normal" text-decoration="none" transform="matrix(0.390879 0 0 0.390443 86.2792 51)">:</text><text fill="#0E2633" fill-opacity="1" font-family="Calibri,Calibri_MSFontService,sans-serif" font-style="normal" font-variant="normal" font-weight="700" font-stretch="normal" font-size="28" text-anchor="start" direction="ltr" writing-mode="lr-tb" unicode-bidi="normal" text-decoration="none" transform="matrix(0.390879 0 0 0.390443 32.3887 64)">ChangeRequest</text><text fill="#000000" fill-opacity="1" font-family="Calibri,Calibri_MSFontService,sans-serif" font-style="normal" font-variant="normal" font-weight="400" font-stretch="normal" font-size="36" text-anchor="start" direction="ltr" writing-mode="lr-tb" unicode-bidi="normal" text-decoration="none" transform="matrix(-7.18034e-17 -0.390443 0.390879 -7.17232e-17 334.986 203)">composedOf</text><path d="M358.817 373.484 358.817 390.974 358.036 390.195 394.261 390.195 393.481 390.974 393.481 338.514 394.261 339.295 374.318 339.295 374.318 337.733 395.042 337.733 395.042 391.755 357.255 391.755 357.255 373.484ZM354.132 373.484C354.132 371.328 355.88 369.58 358.036 369.58 360.193 369.58 361.941 371.328 361.941 373.484 361.941 375.64 360.193 377.388 358.036 377.388 355.88 377.388 354.132 375.64 354.132 373.484ZM380.967 343.101 372.71 338.514 380.967 333.927C381.344 333.717 381.82 333.853 382.029 334.23 382.238 334.607 382.103 335.083 381.725 335.292L374.697 339.196 374.697 337.831 381.725 341.736C382.103 341.945 382.238 342.421 382.029 342.798 381.82 343.175 381.344 343.311 380.967 343.101Z" fill="#DB7F05" fill-rule="nonzero" fill-opacity="1" transform="matrix(1.00112 0 0 1 -15.6352 -83.5548)"/><path d="M0-0.780886 78.3752-0.780886 78.3752 6.14869e-05 77.5943-0.780823 148.161-0.780823 148.161 0.780948 76.8134 0.780948 76.8134 0 77.5943 0.780886 0 0.780886ZM147.38-3.90437 155.189 6.14869e-05 147.38 3.90451Z" fill="#DB7F05" fill-rule="nonzero" fill-opacity="1" transform="matrix(-1.00112 1.22465e-16 1.22602e-16 1 508.718 98.7821)"/><path d="M0-0.780886 19.9007-0.780886 19.9007 0.233036 19.1198-0.54785 36.631-0.54785 36.631 1.01392 18.3389 1.01392 18.3389 0 19.1198 0.780886 0 0.780886ZM0 3.90443C-2.15636 3.90443-3.90443 2.15636-3.90443 0-3.90443-2.15636-2.15636-3.90443 0-3.90443 2.15636-3.90443 3.90443-2.15636 3.90443 0 3.90443 2.15636 2.15636 3.90443 0 3.90443ZM29.9822-4.35402 38.2389 0.233036 29.9822 4.8201C29.6053 5.02953 29.1299 4.89369 28.9204 4.51668 28.7109 4.13971 28.8468 3.66429 29.2238 3.45485L36.2518-0.449579 36.2518 0.915655 29.2238-2.98878C28.8468-3.19822 28.7109-3.67363 28.9204-4.05061 29.1299-4.42762 29.6053-4.56346 29.9822-4.35402Z" fill="#DB7F05" fill-rule="nonzero" fill-opacity="1" transform="matrix(-1.83902e-16 -1 -1.00112 1.83697e-16 566.228 165.134)"/><text fill="#000000" fill-opacity="1" font-family="Calibri,Calibri_MSFontService,sans-serif" font-style="normal" font-variant="normal" font-weight="400" font-stretch="normal" font-size="36" text-anchor="start" direction="ltr" writing-mode="lr-tb" unicode-bidi="normal" text-decoration="none" transform="matrix(-7.18034e-17 -0.390443 0.390879 -7.17232e-17 309.577 195)">represents</text><path d="M0 0.780886-14.0559 0.780886-13.275 0-13.275 72.1784-14.0559 71.3976 32.7772 71.3976 31.9963 72.1784 31.9963 59.7311 33.5581 59.7311 33.5581 72.9593-14.8368 72.9593-14.8368-0.780886 0-0.780886ZM0-3.90443C2.15636-3.90443 3.90443-2.15636 3.90443 0 3.90443 2.15636 2.15636 3.90443 0 3.90443-2.15636 3.90443-3.90443 2.15636-3.90443 0-3.90443-2.15636-2.15636-3.90443 0-3.90443ZM28.1902 66.38 32.7772 58.1233 37.3643 66.38C37.5737 66.7571 37.4379 67.2323 37.0609 67.442 36.6839 67.6513 36.2085 67.5154 35.999 67.1386L32.0946 60.1106 33.4598 60.1106 29.5554 67.1386C29.346 67.5154 28.8706 67.6513 28.4935 67.442 28.1166 67.2323 27.9807 66.7571 28.1902 66.38Z" fill="#DB7F05" fill-rule="nonzero" fill-opacity="1" transform="matrix(1.83902e-16 1 1.00112 -1.83697e-16 297.068 50.7576)"/><path d="M523.877 277.822 445.253 277.822 445.253 182.337 446.034 183.118 375.216 183.118 375.216 181.556 446.815 181.556 446.815 277.041 446.034 276.261 523.877 276.261ZM375.996 186.241 368.188 182.337 375.996 178.432Z" fill="#DB7F05" fill-rule="nonzero" fill-opacity="1" transform="matrix(1.00112 0 0 1 -15.6352 -83.5548)"/><text fill="#000000" fill-opacity="1" font-family="Calibri,Calibri_MSFontService,sans-serif" font-style="normal" font-variant="normal" font-weight="400" font-stretch="normal" font-size="36" text-anchor="start" direction="ltr" writing-mode="lr-tb" unicode-bidi="normal" text-decoration="none" transform="matrix(0.390879 0 0 0.390443 346.247 321)">aligns</text><text fill="#000000" fill-opacity="1" font-family="Calibri,Calibri_MSFontService,sans-serif" font-style="normal" font-variant="normal" font-weight="400" font-stretch="normal" font-size="36" text-anchor="start" direction="ltr" writing-mode="lr-tb" unicode-bidi="normal" text-decoration="none" transform="matrix(0.390879 0 0 0.390443 574.3 151)">realizes</text><path d="M0.669317-0.402246 126.694 209.297 125.356 210.101-0.669317 0.402246ZM-3.34657 2.01122C-4.45733 0.16296-3.85948-2.2358-2.01122-3.34657-0.16296-4.45733 2.2358-3.85948 3.34657-2.01122 4.45733-0.16296 3.85948 2.2358 2.01122 3.34657 0.16296 4.45733-2.2358 3.85948-3.34657 2.01122ZM126.532 201.639 126.854 211.079 118.669 206.365C118.296 206.15 118.167 205.672 118.382 205.298 118.597 204.925 119.075 204.796 119.449 205.011L126.415 209.024 125.245 209.727 124.972 201.692C124.957 201.261 125.294 200.9 125.725 200.885 126.156 200.87 126.518 201.208 126.532 201.639Z" fill="#BFBFBF" fill-rule="nonzero" fill-opacity="1" transform="matrix(-1.00112 0 0 1 238.787 83.5548)"/><path d="M0.233892-0.745035 125.554 38.597 125.086 40.0872-0.233892 0.745035ZM-1.16946 3.72518C-3.22681 3.0793-4.37105 0.887902-3.72518-1.16946-3.0793-3.22681-0.887902-4.37105 1.16946-3.72518 3.22681-3.0793 4.37105-0.887902 3.72518 1.16946 3.0793 3.22681 0.887902 4.37105-1.16946 3.72518ZM120.35 32.9742 126.854 39.8236 117.602 41.727C117.18 41.8141 116.767 41.542 116.68 41.1195 116.593 40.697 116.865 40.2843 117.287 40.1973L125.162 38.5772 124.753 39.8798 119.217 34.0495C118.92 33.7368 118.933 33.2425 119.246 32.9456 119.559 32.6486 120.053 32.6614 120.35 32.9742Z" fill="#BFBFBF" fill-rule="nonzero" fill-opacity="1" transform="matrix(-1.00112 0 0 1 238.787 254.959)"/><path d="M0.560746-0.543457 126.296 129.191 125.174 130.278-0.560746 0.543457ZM-2.80373 2.71729C-4.30444 1.16884-4.26574-1.30301-2.71729-2.80373-1.16884-4.30444 1.30301-4.26574 2.80373-2.71729 4.30444-1.16884 4.26574 1.30301 2.71729 2.80373 1.16884 4.30444-1.30301 4.26574-2.80373 2.71729ZM124.401 121.767 126.854 130.889 117.814 128.152C117.401 128.027 117.168 127.591 117.293 127.179 117.417 126.766 117.853 126.532 118.266 126.657L125.961 128.987 124.981 129.937 122.893 122.173C122.781 121.756 123.028 121.328 123.445 121.216 123.861 121.104 124.289 121.351 124.401 121.767Z" fill="#BFBFBF" fill-rule="nonzero" fill-opacity="1" transform="matrix(-1.00112 0 0 1 238.787 83.5548)"/><path d="M253.902 339.018 128.58 299.14 129.054 297.651 254.375 337.53ZM255.323 334.554C257.378 335.207 258.513 337.403 257.859 339.458 257.205 341.513 255.01 342.649 252.955 341.995 250.9 341.341 249.764 339.145 250.418 337.09 251.072 335.036 253.268 333.9 255.323 334.554ZM133.762 304.783 127.285 297.908 136.544 296.041C136.967 295.955 137.378 296.229 137.464 296.652 137.549 297.075 137.275 297.486 136.853 297.572L128.971 299.161 129.386 297.86 134.899 303.712C135.194 304.026 135.18 304.52 134.866 304.816 134.552 305.112 134.058 305.097 133.762 304.783Z" fill="#BFBFBF" fill-rule="nonzero" fill-opacity="1" transform="matrix(1.00112 0 0 1 -15.6352 -83.5548)"/><path d="M133.922 283.071 173.747 283.071 173.747 302.203 133.922 302.203Z" fill="#FFFFFF" fill-rule="nonzero" fill-opacity="0.301961" transform="matrix(1.00112 0 0 1 -15.6352 -83.5548)"/><text fill="#000000" fill-opacity="1" font-family="Calibri,Calibri_MSFontService,sans-serif" font-style="normal" font-variant="normal" font-weight="400" font-stretch="normal" font-size="28" text-anchor="start" direction="ltr" writing-mode="lr-tb" unicode-bidi="normal" text-decoration="none" transform="matrix(0.390879 0 0 0.390443 123.879 213)">satisfy</text><path d="M127.61 217.158 312.182 302.02 311.53 303.439 126.958 218.577ZM125.653 221.415C123.694 220.514 122.836 218.195 123.737 216.236 124.638 214.277 126.956 213.419 128.915 214.32 130.874 215.22 131.733 217.539 130.832 219.498 129.931 221.457 127.612 222.315 125.653 221.415ZM307.733 295.785 313.319 303.402 303.901 304.12C303.471 304.153 303.096 303.831 303.063 303.401 303.031 302.971 303.352 302.596 303.783 302.563L311.799 301.952 311.229 303.192 306.474 296.708C306.219 296.361 306.294 295.872 306.642 295.617 306.99 295.362 307.478 295.437 307.733 295.785Z" fill="#BFBFBF" fill-rule="nonzero" fill-opacity="1" transform="matrix(1.00112 0 0 1 -15.6352 -83.5548)"/><path d="M0.0700146-0.777739 191.077 16.4173 190.937 17.9728-0.0700146 0.777739ZM-0.350073 3.8887C-2.49775 3.69536-4.08204 1.7976-3.8887-0.350073-3.69536-2.49775-1.7976-4.08204 0.350073-3.8887 2.49775-3.69536 4.08204-1.7976 3.8887 0.350073 3.69536 2.49775 1.7976 4.08204-0.350073 3.8887ZM184.796 12.0303 192.608 17.3392 183.973 21.1674C183.579 21.3422 183.118 21.1643 182.943 20.7701 182.768 20.3758 182.946 19.9145 183.34 19.7397L190.69 16.4811 190.567 17.8409 183.918 13.322C183.561 13.0796 183.468 12.594 183.711 12.2373 183.953 11.8806 184.439 11.7879 184.796 12.0303Z" fill="#BFBFBF" fill-rule="nonzero" fill-opacity="1" transform="matrix(1.00112 0 0 -1 111.792 134.472)"/><path d="M133.531 206.544 178.823 206.544 178.823 225.286 133.531 225.286Z" fill="#FFFFFF" fill-rule="nonzero" fill-opacity="0.301961" transform="matrix(1.00112 0 0 1 -15.6352 -83.5548)"/><text fill="#000000" fill-opacity="1" font-family="Calibri,Calibri_MSFontService,sans-serif" font-style="normal" font-variant="normal" font-weight="400" font-stretch="normal" font-size="28" text-anchor="start" direction="ltr" writing-mode="lr-tb" unicode-bidi="normal" text-decoration="none" transform="matrix(0.390879 0 0 0.390443 123.578 136)">verifies</text><path d="M128.586 137.244 312.644 301.847 311.603 303.011 127.545 138.408ZM125.463 140.737C123.855 139.299 123.717 136.831 125.155 135.224 126.593 133.616 129.061 133.478 130.668 134.916 132.275 136.354 132.413 138.822 130.976 140.429 129.538 142.036 127.07 142.174 125.463 140.737ZM310.224 294.576 313.321 303.499 304.109 301.415C303.688 301.32 303.424 300.901 303.519 300.481 303.614 300.06 304.032 299.796 304.453 299.891L312.295 301.666 311.384 302.684 308.749 295.089C308.607 294.681 308.823 294.236 309.23 294.094 309.638 293.953 310.083 294.169 310.224 294.576Z" fill="#BFBFBF" fill-rule="nonzero" fill-opacity="1" transform="matrix(1.00112 0 0 1 -15.6352 -83.5548)"/><path d="M128.243 137.066 252.751 166.089 252.397 167.61 127.888 138.587ZM127.179 141.629C125.079 141.139 123.773 139.04 124.263 136.94 124.752 134.84 126.851 133.534 128.952 134.024 131.052 134.513 132.357 136.612 131.868 138.713 131.378 140.813 129.279 142.118 127.179 141.629ZM247.14 160.873 254.14 167.214 245.057 169.807C244.643 169.925 244.21 169.685 244.092 169.271 243.974 168.856 244.214 168.424 244.628 168.305L252.359 166.098 252.049 167.428 246.091 162.03C245.772 161.74 245.747 161.247 246.037 160.927 246.327 160.607 246.82 160.583 247.14 160.873Z" fill="#BFBFBF" fill-rule="nonzero" fill-opacity="1" transform="matrix(1.00112 0 0 1 -15.6352 -83.5548)"/><path d="M133.922 358.817 178.823 358.817 178.823 377.558 133.922 377.558Z" fill="#FFFFFF" fill-rule="nonzero" fill-opacity="0.301961" transform="matrix(1.00112 0 0 1 -15.6352 -83.5548)"/><text fill="#000000" fill-opacity="1" font-family="Calibri,Calibri_MSFontService,sans-serif" font-style="normal" font-variant="normal" font-weight="400" font-stretch="normal" font-size="28" text-anchor="start" direction="ltr" writing-mode="lr-tb" unicode-bidi="normal" text-decoration="none" transform="matrix(0.390879 0 0 0.390443 123.879 288)">realizes</text><path d="M133.141 104.248 200.688 104.248 200.688 176.09 133.141 176.09Z" fill="#FFFFFF" fill-rule="nonzero" fill-opacity="0.301961" transform="matrix(1.00112 0 0 1 -15.6352 -83.5548)"/><text fill="#000000" fill-opacity="1" font-family="Calibri,Calibri_MSFontService,sans-serif" font-style="normal" font-variant="normal" font-weight="400" font-stretch="normal" font-size="28" text-anchor="start" direction="ltr" writing-mode="lr-tb" unicode-bidi="normal" text-decoration="none" transform="matrix(0.390879 0 0 0.390443 123.416 34)">hasSolution</text><text fill="#000000" fill-opacity="1" font-family="Calibri,Calibri_MSFontService,sans-serif" font-style="normal" font-variant="normal" font-weight="400" font-stretch="normal" font-size="28" text-anchor="start" direction="ltr" writing-mode="lr-tb" unicode-bidi="normal" text-decoration="none" transform="matrix(0.390879 0 0 0.390443 123.416 47)">hasProblem</text><text fill="#000000" fill-opacity="1" font-family="Calibri,Calibri_MSFontService,sans-serif" font-style="normal" font-variant="normal" font-weight="400" font-stretch="normal" font-size="28" text-anchor="start" direction="ltr" writing-mode="lr-tb" unicode-bidi="normal" text-decoration="none" transform="matrix(0.390879 0 0 0.390443 123.416 60)">affects</text><text fill="#000000" fill-opacity="1" font-family="Calibri,Calibri_MSFontService,sans-serif" font-style="normal" font-variant="normal" font-weight="400" font-stretch="normal" font-size="28" text-anchor="start" direction="ltr" writing-mode="lr-tb" unicode-bidi="normal" text-decoration="none" transform="matrix(0.390879 0 0 0.390443 123.416 73)">implement</text><text fill="#000000" fill-opacity="1" font-family="Calibri,Calibri_MSFontService,sans-serif" font-style="normal" font-variant="normal" font-weight="400" font-stretch="normal" font-size="28" text-anchor="start" direction="ltr" writing-mode="lr-tb" unicode-bidi="normal" text-decoration="none" transform="matrix(0.390879 0 0 0.390443 171.979 73)">s</text><text fill="#000000" fill-opacity="1" font-family="Calibri,Calibri_MSFontService,sans-serif" font-style="normal" font-variant="normal" font-weight="400" font-stretch="normal" font-size="28" text-anchor="start" direction="ltr" writing-mode="lr-tb" unicode-bidi="normal" text-decoration="none" transform="matrix(0.390879 0 0 0.390443 123.416 86)">related</text><path d="M524.17 334.024 638.179 334.024 638.179 390.638 524.17 390.638Z" stroke="#205259" stroke-width="1.95221" stroke-linecap="butt" stroke-linejoin="miter" stroke-miterlimit="8" stroke-opacity="1" fill="#D7EEF1" fill-rule="nonzero" fill-opacity="1" transform="matrix(1.00112 0 0 1 -15.6352 -83.5548)"/><text fill="#0E2633" fill-opacity="1" font-family="Calibri,Calibri_MSFontService,sans-serif" font-style="normal" font-variant="normal" font-weight="400" font-stretch="normal" font-size="40" text-anchor="start" direction="ltr" writing-mode="lr-tb" unicode-bidi="normal" text-decoration="none" transform="matrix(0.390879 0 0 0.390443 537.498 274)">o</text><text fill="#0E2633" fill-opacity="1" font-family="Calibri,Calibri_MSFontService,sans-serif" font-style="normal" font-variant="normal" font-weight="400" font-stretch="normal" font-size="40" text-anchor="start" direction="ltr" writing-mode="lr-tb" unicode-bidi="normal" text-decoration="none" transform="matrix(0.390879 0 0 0.390443 545.707 274)">slc_plm</text><text fill="#0E2633" fill-opacity="1" font-family="Calibri,Calibri_MSFontService,sans-serif" font-style="normal" font-variant="normal" font-weight="700" font-stretch="normal" font-size="40" text-anchor="start" direction="ltr" writing-mode="lr-tb" unicode-bidi="normal" text-decoration="none" transform="matrix(0.390879 0 0 0.390443 531.1 293)">Dimension</text><text fill="#000000" fill-opacity="1" font-family="Calibri,Calibri_MSFontService,sans-serif" font-style="normal" font-variant="normal" font-weight="400" font-stretch="normal" font-size="36" text-anchor="start" direction="ltr" writing-mode="lr-tb" unicode-bidi="normal" text-decoration="none" transform="matrix(0.390879 0 0 0.390443 368.244 112)">inherits</text></g></g></g></svg>